<svg width="28" height="28" viewBox="0 0 28 28" fill="none" xmlns="http://www.w3.org/2000/svg">
<path d="M-3.05176e-05 0L14 -1.22392e-06L11 3L-3.02553e-05 3L-3.05176e-05 0Z" fill="#E4F702"/>
<path d="M-3.05176e-05 14L-3.20676e-05 2.18L2.99997 2.18L2.99997 11L-3.05176e-05 14Z" fill="#E4F702"/>
<path d="M11 6L11 11L5.99997 11L5.99997 6L11 6Z" fill="url(#paint0_linear_755_6654)"/>
<path d="M28 28L14 28L17 25L28 25L28 28Z" fill="#E4F702"/>
<path d="M28 14L28 25.82L25 25.82L25 17L28 14Z" fill="#E4F702"/>
<path d="M17 22L17 17L22 17L22 22L17 22Z" fill="url(#paint1_linear_755_6654)"/>
<defs>
<linearGradient id="paint0_linear_755_6654" x1="8.50001" y1="7.61753" x2="8.50001" y2="6.12876" gradientUnits="userSpaceOnUse">
<stop stop-color="#E4F702"/>
<stop offset="1" stop-color="#E4F702"/>
</linearGradient>
<linearGradient id="paint1_linear_755_6654" x1="19.5" y1="20.3825" x2="19.5" y2="21.8712" gradientUnits="userSpaceOnUse">
<stop stop-color="#E4F702"/>
<stop offset="1" stop-color="#E4F702"/>
</linearGradient>
</defs>
</svg>
